<svg t="1621157506593" class="icon" viewBox="0 0 1230 1024" version="1.1" xmlns="http://www.w3.org/2000/svg" p-id="531" width="200" height="200"><path d="M1211.468 590.062c-26.378 64.63-74.898 81.968-111.377 77.247-29.681 25.219-73.61 30.03-94.357 30.834-1.47 4.705-3.137 9.335-4.759 13.98 96.245 85.84 107.763 118.076 94.517 139.248-6.585 10.518-19.9 14.777-37.108 14.777-33.077 0-80.468-15.716-122.251-32.774a463.982 463.982 0 0 1-53.264 59.591c-85.56 80.354-195.52 123.714-312.276 123.714a477.622 477.622 0 0 1-28.833-0.887c-105.27-6.388-201.53-48.891-276.003-115.461-38.828 19.202-67.312 28.636-87.628 28.643-13.534 0-23.46-4.152-30.493-12.344-22.847-26.56 7.904-82.824 32.402-119.174a449.251 449.251 0 0 1-61.538-171.84c-7.07-50.596-5.812-101.177 3.736-150.636-13.011 1.44-21.506-2.872-26.803-7.646-13.594-12.23-15.693-35.396-6.334-70.617-24.363-0.636-58.137-6.554-75.603-32.046-14.761-21.543-14.148-51.217 1.826-88.166 2.182-6.032 18.914-50.627 47.482-81.036 26.65-28.144 82.877-66.13 125.714-31.197 18.46 12.215 71.215 39.934 109.02 31.97a333.405 333.405 0 0 1 8.783-6.191c-14.625-115.09-0.046-132.943 5.539-139.786 4.584-5.615 11.23-8.775 18.724-8.896 9.526 0.068 29.25-0.485 104.914 84.81a455.844 455.844 0 0 1 134.746-20.316c5.236 0 10.563 0.113 16.17 0.348-0.075-38.297 17.407-70.866 50.491-93.107a33.857 33.857 0 0 1 39.57 1.182c26.985 20.74 91.183 76.042 116.993 149.72 143.923 80.695 233.029 232.287 233.029 397.26 0 34.934-4.001 69.14-11.54 102.247 13.124-1.235 30.787-4.244 46.314-11.488-17.588-12.996-27.924-32.554-26.992-54.006 1.008-23.196 11.192-35.093 19.573-40.988 13.739-9.67 30.948-9.313 42.466-5.79 20.005 6.146 34.137 27.879 33.607 51.673-0.235 10.707-2.046 20.65-5.395 29.788 20.133-4.607 41.275-20.718 55.445-55.439a17.012 17.012 0 0 1 22.158-9.32 16.959 16.959 0 0 1 9.335 22.12zM1065.037 832.61c-2.819-7.873-16.186-31.114-77.368-86.765a447.986 447.986 0 0 1-31.607 58.932c47.012 18.346 93.509 30.205 108.975 27.833z m-891.387 62.22c0.091 0.046 1.122 0.478 4.395 0.478 7.108 0 24.295-2.63 61.72-20.134a457.314 457.314 0 0 1-39.062-46.732c-18.626 30.31-30.697 58.636-27.053 66.388z m597.668-704.255l-6.054-3.281-2.062-6.563C741.326 111.091 675.407 56.312 655.72 41.18c-27.939 18.99-39.449 46.05-34.023 80.513l3.334 21.202-21.445-1.66a429.58 429.58 0 0 0-33.342-1.424c-45.936 0-91.258 7.41-134.716 22.036l-10.776 3.622-7.471-8.563c-48.664-55.757-71.632-73.45-81.172-79.058-2.88 13.663-4.115 48.702 5.281 118.098l1.41 10.42-11.708 7.918c-5.388 3.638-10.775 7.275-15.95 11.193l-8.42 6.41-4.107-2.046c-60.038 11.193-130.707-35.79-133.792-37.873l-1.424-1.076c-28.97-24.31-79.339 27.318-79.831 27.848-25.143 26.75-40.223 69.177-40.374 69.609l-0.447 1.152c-7.722 17.731-14.89 41.836-5.176 56.006 8.131 11.86 29.834 18.323 58.03 17.21a25.325 25.325 0 0 1 21.104 9.888 25.416 25.416 0 0 1 4.115 22.968c-8.54 27.507-7.95 41.352-6.699 45.762 1.5-0.137 4.395-0.697 9.177-2.728a23.165 23.165 0 0 1 24.051 3.554 23.203 23.203 0 0 1 7.714 23.172c-11.89 50.862-14.208 103.2-6.88 155.6 9.017 64.487 32.796 124.078 67.6 175.56l1.69 1.258c-0.151 0.198-0.288 0.402-0.44 0.592 71.67 104.83 189.443 175.476 322.788 183.57 117.939 7.206 230.074-33.214 315.74-113.666 85.718-80.52 132.935-189.549 132.935-306.98 0-154.774-84.75-296.803-221.178-370.693z m314.997 393.108a20.452 20.452 0 0 0-5.63-0.773c-2.561 0-5.274 0.477-7.23 1.856-3.894 2.743-4.978 9.525-5.205 14.731-0.53 12.185 7.517 23.317 20.475 29.538 4.6-7.646 6.971-16.534 7.206-26.878 0.197-9.222-4.804-16.99-9.616-18.474zM558.06 902.975c-9.048 3.516-18.065 5.274-26.863 5.274a64.418 64.418 0 0 1-29.863-7.32c-48.323-24.938-66.063-105.072-67.934-114.127a16.974 16.974 0 0 1 13.223-20.036 17.065 17.065 0 0 1 20.088 13.193c4.206 20.225 21.43 75.99 50.27 90.841 9.442 4.873 19.263 4.76 30.902-0.34l3.857-1.698 4.19 0.303c0.281 0.053 11.466 0.31 18.483-9.336 7.047-9.669 15.125-36.054-9.828-104.087a16.959 16.959 0 0 1 10.123-21.77 17.035 17.035 0 0 1 21.816 10.1c23.4 63.812 25.022 109.74 4.797 136.528-12.799 16.951-31.5 21.998-43.26 22.475zM454.07 333.322c-8.146 4.729-16.958 7.139-25.764 7.139a48.202 48.202 0 0 1-15.314-2.501c-27.197-9.048-41.276-40.503-31.387-70.132 4.668-13.973 13.966-25.574 26.188-32.682 12.928-7.502 27.508-9.162 41.08-4.638 21.997 7.313 36.152 29.887 34.417 54.9a61.523 61.523 0 0 1-3.046 15.24c-4.66 13.965-13.958 25.566-26.174 32.674z m-15.95-70.616a14.337 14.337 0 0 0-4.479-0.72c-3.743 0-6.91 1.44-8.745 2.5-5.062 2.94-8.98 7.942-11.025 14.072-3.895 11.67 0.621 24.128 9.874 27.204 5.622 1.857 10.684-0.303 13.215-1.773 5.062-2.94 8.98-7.949 11.018-14.072l0.008-0.007a27.208 27.208 0 0 0 1.371-6.85c0.667-9.556-3.955-17.937-11.238-20.354zM152.174 301.2c-0.326 0-0.644 0-0.977-0.022-13.405-0.652-22.15-13.67-21.278-31.667 0.886-18.013 10.972-30.198 24.256-29.47 8.904 0.41 19.83 7.403 21.202 25.734 0.144 1.879 0.182 3.88 0.076 5.956-0.288 5.948-1.622 11.503-3.834 16.087-4.085 8.442-11.299 13.382-19.445 13.382z m0.675-33.917a13.488 13.488 0 0 0-9.313 2.88 14.095 14.095 0 0 0 9.025 3.78c3.872 0.175 7.16-1.25 9.275-2.887a14.087 14.087 0 0 0-8.987-3.773z m-61.13 47.542c-0.325 0-0.644 0-0.977-0.023-13.405-0.651-22.15-13.67-21.278-31.667 0.886-18.012 11.101-30.212 24.256-29.47 8.904 0.41 19.83 7.404 21.202 25.734 0.144 1.88 0.182 3.88 0.076 5.957-0.288 5.948-1.622 11.502-3.834 16.087-4.085 8.442-11.299 13.382-19.445 13.382z m0.675-33.918a14.238 14.238 0 0 0-9.313 2.88 14.095 14.095 0 0 0 9.025 3.781 13.791 13.791 0 0 0 9.275-2.887 14.087 14.087 0 0 0-8.987-3.774z" fill="#1296db" p-id="532"></path></svg>